Patient4_TMGait_0pt3_02_left_24_EMG.mot
version=1
nRows=13
nColumns=33
inDegrees=no
endheader
time	1LAddLong	2LGlutMax	3LGlutMed	4LIliopsoas	5LSemiMemb	6LBicFemLong	7LRecFem	8LVastMed	9LVastLat	10LGasMed	11LTibAnt	12lTibPost	13LPeroneusLong	14LSol	15LExtDigLong	16LFlexDigLong	17RAddLong	18RGlutMax	19RGlutMed	20RIliopsoas	21RSemiMemb	22RBicFemLong	23RRecFem	24RVastMed	25RVastLat	26RGasMed	27RTibAnt	28RTibPost	29RPeroneusLong	30RSol	31RExtDigLong	32RFlexDigLong
47.03	-0.00885	0.21118	0.036011	0.014038	-0.000458	-0.023956	0.00473	0.016022	0.020294	-0.007172	-0.000763	0.010986	0.018463	-0.058594	0.032959	0.006256	0.059662	-0.095062	0.26794	-0.04837	-0.063934	-0.054321	0.47806	-0.52445	-1.2766	-0.009613	-0.053711	-0.004578	-0.60944	-0.034332	-0.007477	-0.00946
47.031	-0.000153	0.19592	0.042572	0.001373	0.005798	-0.035858	-0.003052	0.019379	0.036621	0.010376	-0.1294	0.015411	-0.010071	-0.025787	0.40604	0.003204	0.028381	-0.081329	0.092316	-0.012817	-0.037231	0.23453	0.23025	-0.63278	-0.88242	-0.0177	-0.25101	-0.003662	1.1362	0.11658	0.001221	-0.010986
47.032	-0.001373	0.23346	0.059357	-0.012207	0.006104	-0.033264	-0.018005	0.017395	0.034485	-0.006866	-0.38391	0.002747	0.020142	0.071564	0.31189	-0.001678	0.008698	-0.098419	-0.081635	0.030518	-0.010071	0.15976	0.10452	-0.27374	-0.37003	-0.016174	-0.15121	-0.013275	1.6666	0.095367	-0.009155	-0.011444
47.033	0.001831	0.23377	0.069427	0.000305	0.005035	-0.029755	-0.013428	0.018158	0.01297	-0.020905	-0.31174	0.003662	0.036316	0.10208	0.26093	0.008698	0.016022	-0.077972	-0.02243	-0.004578	-0.013733	0.085144	0.1149	-0.21591	-0.21194	-0.016174	-0.044098	-0.003815	0.63232	-0.024261	-0.001831	-0.003357
47.034	-0.00824	0.25177	0.056152	0.001221	0.007629	-0.014954	0.001678	0.018616	0.023956	-0.033569	0.057678	0.006409	0.006409	0.10574	-0.35858	0.01236	0.042572	-0.11307	0.11169	-0.10468	-0.009155	-0.014496	0.12161	-0.18997	-0.16861	-0.01297	0.2803	-0.006256	0.049591	0.073395	-0.001678	-0.00824
47.035	-0.006104	0.21027	0.074921	0.007629	0.001068	-0.033875	0.005646	0.010071	0.031891	-0.011597	0.05249	0.00351	-0.028534	0.051575	-0.38422	0.005951	0.047607	-0.054169	0.11749	-0.1088	-0.022278	-0.1149	0.11429	-0.12344	-0.14847	-0.010681	0.19974	0.00061	-0.3389	-0.010223	-0.003967	-0.00885
47.036	-0.007019	0.23529	0.071869	0.011444	0.000305	-0.020294	0.020752	0.014038	0.020294	0.011292	0.09964	0.000763	-0.029449	-0.041962	-0.44174	0.003815	0.046844	-0.050201	0.54001	-0.097809	-0.025635	-0.21957	0.15396	-0.103	-0.10162	-0.005035	-0.37277	-0.003052	-1.5773	-0.086365	-0.005341	-0.007324
47.037	-0.014038	0.25665	0.065308	-0.000763	-0.001831	-0.039825	0.025024	0.014343	0.020447	0.015411	0.037384	-0.001526	-0.015869	-0.054932	-0.16419	0.010986	0.04715	-0.048218	0.6517	-0.001984	-0.019226	-0.27329	0.17456	-0.088196	-0.045319	-0.002899	-0.7898	-0.008392	-0.13397	-0.093842	0.000763	-0.00061
47.038	-0.010223	0.23178	0.098114	0.006104	0.003967	-0.033417	0.005188	0.012817	0.014648	-0.011292	0.070343	0.00473	-0.017853	0.01236	0.1178	0.008392	0.04837	-0.12482	0.64407	0.092621	-0.02594	-0.25085	0.23666	-0.094604	-0.054779	0.014954	-0.39337	-0.002594	0.35828	-0.23041	0.001068	0.000153
47.039	-0.013123	0.23834	0.11612	-0.00061	-0.010681	-0.030975	0.02594	0.009308	0.015869	-0.020447	-0.007935	-0.001068	-0.034027	0.003662	0.14954	0.00824	0.052185	-0.08255	0.52719	0.11551	-0.048065	-0.21011	0.2945	-0.11887	-0.099487	0.017395	-0.42221	-0.003815	1.4046	-0.34546	-0.007324	-0.008087
47.04	-0.004272	0.22659	0.072021	0.016632	-0.003357	-0.03006	0.019226	0.010681	0.014343	0.001678	-0.028076	-0.001831	-0.039673	0.021362	0.059967	0.004425	0.055847	-0.13153	0.35797	0.20508	-0.055542	-0.14084	0.34256	0.26535	-0.09201	0.005951	-0.22125	-0.002747	1.2035	-0.29022	-0.012207	-0.002136
47.041	-0.005341	0.21881	0.036316	0.007019	-0.001068	-0.046692	0.004883	0.007172	0.025635	-0.000916	-0.046082	-0.003662	-0.014343	-0.048065	-0.000916	-0.014954	0.058594	-0.16449	-0.058136	0.20432	-0.048065	-0.076599	0.36545	0.41351	-0.09491	0.003357	0.27771	-0.005188	-0.15991	-0.29587	0.003052	-0.003815
47.042	-0.011749	0.23346	0.054932	0.03006	-0.004578	-0.03067	0.018005	0.005646	0.031738	0.044861	-0.044098	-0.007172	0.031433	-0.028076	-0.063324	-0.004425	-0.022888	-0.13565	-0.3244	0.10727	-0.040741	0.13809	0.15411	0.16968	-0.066376	0.00061	0.51498	-0.003815	0.51102	-0.24262	0.001221	-0.002899
